<?xml version="1.0" encoding="utf-8"?>
<!-- Generator: Adobe Illustrator 23.0.2, SVG Export Plug-In . SVG Version: 6.00 Build 0)  -->
<svg version="1.1" id="Layer_1" xmlns="http://www.w3.org/2000/svg" xmlns:xlink="http://www.w3.org/1999/xlink" x="0px" y="0px"
	 viewBox="0 0 1024 500" style="enable-background:new 0 0 1024 500;" xml:space="preserve">
<style type="text/css">
	.st0{fill:#0B22F7;}
	.st1{stroke:#FFFFFF;stroke-miterlimit:10;}
	.st2{fill:#041456;}
	.st3{fill:#FFFF00;}
</style>
<rect class="st0" width="1024" height="500"/>
<g>
	<path class="st1" d="M91.2,46.06c-2.36,0-3.81,0.51-4.36,1.54c-0.41,0.76-0.79,2.26-1.15,4.48c-0.36,2.23-0.54,4.25-0.54,6.06
		c0,1.08,0.41,1.83,1.23,2.24C87.2,60.8,88.73,61,90.99,61c1.5,0,2.62-0.23,3.33-0.7c0.72-0.47,1.21-1.26,1.49-2.37
		c0.79-3.19,2.39-4.79,4.82-4.79c4.17,0,6.26,4.28,6.26,12.83c0,5.42-0.91,9.4-2.72,11.95c-1.09,1.55-2.6,2.33-4.51,2.33
		c-2.02,0-3.18-1.16-3.49-3.47c-0.17-1.49-0.38-2.55-0.64-3.16s-0.74-1.2-1.46-1.76c-1.13-0.91-2.77-1.36-4.92-1.36
		c-1.54,0-2.58,0.23-3.13,0.7c-0.55,0.47-0.79,1.36-0.72,2.68c0,0.23-0.02,1.6-0.05,4.09c0,5.07,0.62,8.16,1.85,9.27
		c0.41,0.44,0.83,0.73,1.26,0.86c0.43,0.13,1.55,0.31,3.36,0.55c0.89,0.12,1.64,0.51,2.26,1.19c0.62,0.67,0.92,1.45,0.92,2.33
		c0,2.26-1.54,3.71-4.61,4.35c-4.44,0.91-10.68,1.36-18.72,1.36c-7.04,0-11.9-0.35-14.56-1.05c-1.2-0.32-2.17-0.91-2.92-1.76
		c-0.75-0.85-1.13-1.79-1.13-2.81c0-1.29,0.55-2.33,1.64-3.12c0.27-0.18,1.21-0.54,2.82-1.1c1.91-0.64,3.06-2.14,3.44-4.48
		c0.62-3.6,0.92-11.82,0.92-24.65c0-5.54-0.22-9.13-0.67-10.77c-0.44-1.64-1.52-2.78-3.23-3.43c-1.71-0.64-2.83-1.21-3.36-1.69
		c-0.53-0.48-0.79-1.18-0.79-2.09c0-1.29,0.73-2.37,2.2-3.23c1.47-0.86,3.28-1.3,5.44-1.3c1.37,0,3.37,0.09,6,0.26
		c5.57,0.38,12.24,0.57,20,0.57c12.41,0,20.77-0.29,25.07-0.88c0.58-0.06,1.03-0.09,1.33-0.09c1.2,0,2.34,0.59,3.44,1.76
		c3.01,3.28,4.51,6.91,4.51,10.9c0,1.82-0.5,3.27-1.49,4.35c-0.99,1.08-2.29,1.63-3.9,1.63c-1.2,0-2.1-0.2-2.72-0.62
		c-0.62-0.41-2.19-1.85-4.72-4.31c-1.54-1.52-3.39-2.52-5.56-2.99C101.15,46.52,97.11,46.21,91.2,46.06z"/>
	<path class="st1" d="M161.24,35.78c8.79,0,16.46,2.15,23.02,6.46c4.44,2.96,8.05,6.8,10.82,11.51c2.7,4.69,4.05,9.38,4.05,14.06
		c0,6.91-2.67,13.1-8,18.54c-4.51,4.63-10.41,7.95-17.69,9.98c-4.48,1.23-8.97,1.85-13.49,1.85c-5.91,0-11.57-1.05-16.97-3.16
		c-6.53-2.55-11.64-6.4-15.33-11.56c-3.59-4.98-5.38-10.47-5.38-16.48c0-6.97,2.31-13.12,6.92-18.46c4.1-4.75,9.62-8.23,16.56-10.46
		C150.4,36.54,155.56,35.78,161.24,35.78z M156.37,48.39c-2.87,0-5.15,1.1-6.82,3.3c-1.3,1.64-1.95,3.59-1.95,5.84
		c0,3.31,0.79,7.14,2.36,11.49c1.57,4.35,3.55,8.21,5.95,11.58c1.06,1.44,2.37,2.58,3.92,3.43c1.56,0.85,3.14,1.27,4.74,1.27
		c2.6,0,4.69-0.83,6.28-2.5c1.59-1.67,2.38-3.87,2.38-6.59c0-3.54-0.67-7.37-2-11.47c-1.33-4.1-3.06-7.6-5.18-10.5
		c-1.3-1.79-2.8-3.19-4.51-4.22C159.83,48.99,158.11,48.45,156.37,48.39z"/>
	<path class="st1" d="M278.66,58.98v10.72c0,6.48-0.56,11.06-1.69,13.75c-2.43,5.68-7.76,9.8-16,12.35
		c-4.99,1.58-10.63,2.37-16.92,2.37c-10.97,0-19.76-2.24-26.36-6.72c-3.21-2.2-5.44-4.75-6.67-7.65c-1.23-2.9-1.85-7.09-1.85-12.57
		c0-2.14,0.08-5.65,0.26-10.55c0.1-3.46,0.15-5.74,0.15-6.86c0-2.43-0.21-4.12-0.64-5.05c-0.43-0.94-1.36-1.82-2.79-2.64
		c-2.26-1.26-3.38-2.67-3.38-4.22c0-1.14,0.57-2.15,1.72-3.03c1.15-0.88,2.66-1.48,4.54-1.8c3.76-0.64,8.2-0.97,13.33-0.97
		c5.64,0,10.32,0.37,14.05,1.1c3.66,0.7,5.49,2.3,5.49,4.79c0,1.23-0.53,2.21-1.59,2.94c-0.24,0.18-1.27,0.63-3.08,1.36
		c-1.09,0.41-1.84,1.16-2.23,2.24c-0.39,1.08-0.59,2.87-0.59,5.36c0,2.55-0.14,8.06-0.41,16.52c-0.17,5.04,1.42,8.88,4.77,11.51
		c2.73,2.17,6.26,3.25,10.56,3.25c2.73,0,5.21-0.43,7.44-1.3c2.22-0.86,3.91-2.04,5.08-3.54c0.92-1.14,1.56-2.42,1.9-3.82
		c0.34-1.41,0.51-3.32,0.51-5.76v-9.67c-0.17-7.41-0.42-11.76-0.74-13.03c-0.33-1.27-1.43-2.28-3.31-3.01
		c-1.78-0.67-2.99-1.29-3.64-1.85c-0.65-0.56-0.97-1.25-0.97-2.07c0-1.76,1.22-3.04,3.67-3.85c2.44-0.81,6.37-1.21,11.77-1.21
		c5.3,0,9.14,0.4,11.51,1.19s3.56,2.05,3.56,3.78c0,0.85-0.21,1.48-0.62,1.89c-0.41,0.41-1.49,1.04-3.23,1.89
		c-1.81,0.88-2.85,1.82-3.1,2.83C278.89,48.72,278.73,52.48,278.66,58.98z"/>
	<path class="st1" d="M323.01,71.77c-1.3,0-2.13,0.34-2.49,1.01c-0.36,0.67-0.54,2.24-0.54,4.7c0,3.72,0.27,6.62,0.82,8.7
		c0.17,0.59,0.43,1.04,0.77,1.36c0.34,0.32,0.99,0.72,1.95,1.19c2.05,0.97,3.08,2.24,3.08,3.82c0,1.93-1.43,3.3-4.28,4.11
		s-7.68,1.21-14.49,1.21c-12.65,0-18.97-2.05-18.97-6.15c0-0.7,0.19-1.27,0.56-1.69c0.38-0.42,1.23-1.02,2.56-1.78
		c1.5-0.85,2.52-1.85,3.05-3.01c0.53-1.16,0.9-3.16,1.1-6c0.17-2.08,0.26-9.54,0.26-22.37c0-4.07-0.24-6.84-0.72-8.31
		c-0.48-1.46-1.5-2.53-3.08-3.21c-1.5-0.62-2.51-1.18-3.03-1.69c-0.51-0.51-0.77-1.18-0.77-2c0-1.08,0.49-2.03,1.46-2.83
		c0.97-0.81,2.33-1.4,4.08-1.78c1.47-0.32,3.49-0.48,6.05-0.48c1.13,0,3.95,0.15,8.46,0.44c0.85,0.06,2.21,0.09,4.05,0.09
		c3.08,0,7.18-0.18,12.31-0.53c3.25-0.2,5.52-0.31,6.82-0.31c7.32,0,13.37,1.51,18.15,4.53c4.31,2.72,6.46,6.5,6.46,11.34
		c0,2.7-0.75,5.15-2.26,7.36c-1.5,2.21-3.57,3.87-6.21,4.99c-1.09,0.47-1.64,1.03-1.64,1.67c0,0.85,0.84,1.54,2.51,2.07
		c3.59,1.11,6.22,2.8,7.9,5.05c1.67,2.26,2.87,5.71,3.59,10.37c0.31,1.93,0.75,3.19,1.33,3.76c0.58,0.57,1.93,1.12,4.05,1.65
		c0.65,0.18,1.2,0.55,1.64,1.12s0.67,1.21,0.67,1.91c0,0.91-0.41,1.82-1.23,2.75c-0.82,0.92-1.88,1.65-3.18,2.18
		c-2.87,1.14-6.8,1.71-11.79,1.71c-6.67,0-11.43-1.51-14.31-4.53c-1.3-1.35-2.4-3.05-3.31-5.1c-0.91-2.05-1.97-5.24-3.21-9.58
		c-0.79-2.78-1.79-4.75-3-5.89C327,72.47,325.27,71.86,323.01,71.77z M320.04,49.36l-0.56,10.24c0,0.09,0,0.22,0,0.4
		c0,1.05,0.18,1.76,0.54,2.11c0.36,0.35,1.08,0.53,2.18,0.53c3.01,0,5.2-0.67,6.56-2c1.37-1.33,2.05-3.46,2.05-6.39
		c0-5.65-2.34-8.48-7.02-8.48c-1.33,0-2.27,0.26-2.82,0.79C320.41,47.07,320.1,48.01,320.04,49.36z"/>
	<path class="st1" d="M419,36.09c3.9,0,7.57,0.29,11.03,0.88c4.65,0.79,6.97,2.48,6.97,5.05c0,0.85-0.23,1.49-0.69,1.91
		c-0.46,0.42-1.63,1.05-3.51,1.87c-1.57,0.67-2.61,2.15-3.1,4.44c-0.5,2.29-0.74,6.74-0.74,13.36c0,11.19,0.32,18.12,0.97,20.79
		c0.24,0.85,0.61,1.5,1.1,1.96c0.5,0.45,1.36,0.94,2.59,1.47c2.26,0.88,3.38,2.15,3.38,3.82c0,2.34-2.09,3.96-6.26,4.83
		c-4.51,0.94-10.03,1.41-16.56,1.41c-11.14,0-16.72-1.82-16.72-5.45c0-1.32,1.09-2.55,3.28-3.69c1.67-0.88,2.67-2.08,2.97-3.6
		c0.65-3.34,0.97-10.43,0.97-21.27c0-7.5-0.44-12.3-1.33-14.41c-0.48-1.2-1.62-2.29-3.44-3.25c-1.4-0.79-2.34-1.45-2.82-1.98
		c-0.48-0.53-0.72-1.2-0.72-2.02c0-1.26,0.71-2.26,2.13-3.01c1.42-0.75,3.92-1.41,7.51-2C410.29,36.45,414.62,36.09,419,36.09z"/>
	<path class="st1" d="M468.58,39.12l25.54,19.16c2.39,1.79,4.12,2.68,5.18,2.68c1.78,0,2.67-1.63,2.67-4.88
		c0-3.69-0.26-6.21-0.77-7.56c-0.51-1.35-1.59-2.36-3.23-3.03c-1.33-0.56-2.27-1.15-2.82-1.78c-0.55-0.63-0.82-1.44-0.82-2.44
		c0-2.46,1.97-4.04,5.9-4.75c1.61-0.29,4.41-0.44,8.41-0.44c5.16,0,8.73,0.26,10.72,0.79c3.14,0.82,4.72,2.37,4.72,4.66
		c0,1.9-1.28,3.34-3.85,4.31c-1.03,0.38-1.73,0.72-2.1,1.01c-0.38,0.29-0.7,0.73-0.97,1.32c-0.92,1.93-1.4,5.6-1.44,10.99v14.33
		c0,2.2,0.02,5.2,0.05,9.01c0.03,5.16-0.33,8.88-1.08,11.16c-0.92,2.84-2.6,4.26-5.02,4.26c-1.06,0-1.97-0.19-2.74-0.57
		c-0.77-0.38-2.04-1.26-3.82-2.64l-30.41-23.33c-2.12-1.64-3.88-2.46-5.28-2.46c-2.09,0-3.13,2.48-3.13,7.43
		c0,4.07,0.26,6.86,0.79,8.35c0.53,1.49,1.62,2.59,3.26,3.3c2.29,0.97,3.44,2.23,3.44,3.78c0,4.07-5.11,6.11-15.33,6.11
		c-4.62,0-8.2-0.52-10.74-1.56c-2.55-1.04-3.82-2.51-3.82-4.42c0-1,0.24-1.74,0.72-2.24c0.48-0.5,1.56-1.17,3.23-2.02
		c1.61-0.82,2.58-2.27,2.92-4.35c0.58-3.78,0.87-9.21,0.87-16.3c0-7.56-0.51-13.07-1.54-16.52c-0.38-1.26-0.85-2.2-1.44-2.81
		s-1.54-1.2-2.87-1.76c-1.54-0.64-2.61-1.27-3.21-1.89c-0.6-0.62-0.9-1.36-0.9-2.24c0-2.81,2.82-4.58,8.46-5.32
		c1.91-0.23,5.26-0.35,10.05-0.35c2.73,0,4.73,0.18,5.97,0.55C465.39,37,466.87,37.83,468.58,39.12z"/>
	<path class="st1" d="M619.84,66.63l9.69,17.8c0.92,1.64,1.69,2.72,2.31,3.23c0.62,0.51,1.55,0.86,2.82,1.03
		c2.46,0.32,3.69,1.39,3.69,3.21c0,2.14-1.5,3.68-4.51,4.61s-7.93,1.41-14.77,1.41c-7.73,0-13.45-0.28-17.18-0.83
		c-1.71-0.26-3.07-0.8-4.08-1.6c-1.01-0.81-1.51-1.78-1.51-2.92c0-0.88,0.26-1.56,0.79-2.04c0.53-0.48,1.51-0.93,2.95-1.34
		c1.61-0.47,2.41-1.26,2.41-2.37c0-1.96-1.38-3.12-4.15-3.47c-2.97-0.35-7.16-0.53-12.56-0.53c-4.55,0-7.26,0.23-8.15,0.7
		c-0.55,0.29-1.03,0.82-1.44,1.58c-0.41,0.76-0.62,1.49-0.62,2.2c0,0.64,0.15,1.06,0.44,1.25c0.29,0.19,1.24,0.51,2.85,0.94
		c2.08,0.53,3.13,1.58,3.13,3.16c0,3.49-4.87,5.23-14.61,5.23c-5.54,0-9.61-0.32-12.2-0.97c-2.39-0.62-3.59-1.96-3.59-4.04
		c0-0.91,0.26-1.61,0.79-2.11c0.53-0.5,1.48-0.95,2.85-1.36c2.22-0.67,3.91-1.62,5.05-2.83c1.14-1.22,2.78-3.82,4.9-7.8l7.23-13.58
		c2.67-4.98,4.45-8.71,5.36-11.18c0.91-2.48,1.38-4.9,1.41-7.27c0.03-2.52,0.21-4.27,0.54-5.25c0.33-0.98,1.05-1.94,2.18-2.88
		c2.36-2.05,5.37-3.08,9.02-3.08c3.45,0,6.75,1.16,9.9,3.47C605.14,42.15,611.5,51.37,619.84,66.63z M584.15,72.17h10.05
		c1.85,0,2.77-0.35,2.77-1.05c0-0.97-1.28-3.34-3.85-7.12c-1.16-1.73-2.05-2.89-2.67-3.47c-0.62-0.59-1.26-0.88-1.95-0.88
		c-1.23,0-2.26,0.98-3.08,2.94c-0.14,0.26-0.63,1.3-1.49,3.12c-1.44,2.99-2.15,4.78-2.15,5.36
		C581.79,71.8,582.58,72.17,584.15,72.17z"/>
	<path class="st1" d="M699.98,71.77c-1.3,0-2.13,0.34-2.49,1.01c-0.36,0.67-0.54,2.24-0.54,4.7c0,3.72,0.27,6.62,0.82,8.7
		c0.17,0.59,0.43,1.04,0.77,1.36c0.34,0.32,0.99,0.72,1.95,1.19c2.05,0.97,3.08,2.24,3.08,3.82c0,1.93-1.43,3.3-4.28,4.11
		s-7.68,1.21-14.49,1.21c-12.65,0-18.97-2.05-18.97-6.15c0-0.7,0.19-1.27,0.56-1.69c0.38-0.42,1.23-1.02,2.56-1.78
		c1.5-0.85,2.52-1.85,3.05-3.01c0.53-1.16,0.9-3.16,1.1-6c0.17-2.08,0.26-9.54,0.26-22.37c0-4.07-0.24-6.84-0.72-8.31
		c-0.48-1.46-1.5-2.53-3.08-3.21c-1.5-0.62-2.51-1.18-3.03-1.69c-0.51-0.51-0.77-1.18-0.77-2c0-1.08,0.49-2.03,1.46-2.83
		c0.97-0.81,2.33-1.4,4.08-1.78c1.47-0.32,3.49-0.48,6.05-0.48c1.13,0,3.95,0.15,8.46,0.44c0.85,0.06,2.21,0.09,4.05,0.09
		c3.08,0,7.18-0.18,12.31-0.53c3.25-0.2,5.52-0.31,6.82-0.31c7.32,0,13.37,1.51,18.15,4.53c4.31,2.72,6.46,6.5,6.46,11.34
		c0,2.7-0.75,5.15-2.26,7.36c-1.5,2.21-3.57,3.87-6.21,4.99c-1.09,0.47-1.64,1.03-1.64,1.67c0,0.85,0.84,1.54,2.51,2.07
		c3.59,1.11,6.22,2.8,7.9,5.05c1.67,2.26,2.87,5.71,3.59,10.37c0.31,1.93,0.75,3.19,1.33,3.76c0.58,0.57,1.93,1.12,4.05,1.65
		c0.65,0.18,1.2,0.55,1.64,1.12s0.67,1.21,0.67,1.91c0,0.91-0.41,1.82-1.23,2.75c-0.82,0.92-1.88,1.65-3.18,2.18
		c-2.87,1.14-6.8,1.71-11.79,1.71c-6.67,0-11.43-1.51-14.31-4.53c-1.3-1.35-2.4-3.05-3.31-5.1c-0.91-2.05-1.97-5.24-3.21-9.58
		c-0.79-2.78-1.79-4.75-3-5.89C703.97,72.47,702.24,71.86,699.98,71.77z M697.01,49.36l-0.56,10.24c0,0.09,0,0.22,0,0.4
		c0,1.05,0.18,1.76,0.54,2.11c0.36,0.35,1.08,0.53,2.18,0.53c3.01,0,5.2-0.67,6.56-2c1.37-1.33,2.05-3.46,2.05-6.39
		c0-5.65-2.34-8.48-7.02-8.48c-1.33,0-2.27,0.26-2.82,0.79C697.38,47.07,697.07,48.01,697.01,49.36z"/>
	<path class="st1" d="M784.63,35.78c8.79,0,16.46,2.15,23.02,6.46c4.44,2.96,8.05,6.8,10.82,11.51c2.7,4.69,4.05,9.38,4.05,14.06
		c0,6.91-2.67,13.1-8,18.54c-4.51,4.63-10.41,7.95-17.69,9.98c-4.48,1.23-8.97,1.85-13.49,1.85c-5.91,0-11.57-1.05-16.97-3.16
		c-6.53-2.55-11.64-6.4-15.33-11.56c-3.59-4.98-5.38-10.47-5.38-16.48c0-6.97,2.31-13.12,6.92-18.46c4.1-4.75,9.62-8.23,16.56-10.46
		C773.8,36.54,778.96,35.78,784.63,35.78z M779.76,48.39c-2.87,0-5.15,1.1-6.82,3.3c-1.3,1.64-1.95,3.59-1.95,5.84
		c0,3.31,0.79,7.14,2.36,11.49s3.56,8.21,5.95,11.58c1.06,1.44,2.37,2.58,3.92,3.43c1.55,0.85,3.14,1.27,4.74,1.27
		c2.6,0,4.69-0.83,6.28-2.5s2.38-3.87,2.38-6.59c0-3.54-0.67-7.37-2-11.47c-1.33-4.1-3.06-7.6-5.18-10.5
		c-1.3-1.79-2.8-3.19-4.51-4.22C783.23,48.99,781.51,48.45,779.76,48.39z"/>
	<path class="st1" d="M868.78,52.61l-1.49-3.08c-0.92-1.79-2.07-2.97-3.44-3.56c-2.46-1.11-3.69-2.52-3.69-4.22
		c0-3.75,6.56-5.63,19.69-5.63c6.56,0,11.55,0.45,14.97,1.36c1.16,0.32,2.09,0.83,2.79,1.54c0.7,0.7,1.05,1.48,1.05,2.33
		c0,0.73-0.16,1.29-0.49,1.67c-0.33,0.38-1.22,1.13-2.69,2.24c-0.86,0.62-1.28,1.26-1.28,1.93c0,1.03,0.65,2.72,1.95,5.1l2.92,5.36
		c1.33,2.43,2.28,3.98,2.85,4.64c0.56,0.66,1.21,0.99,1.92,0.99c0.79,0,1.46-0.38,2.03-1.14c0.56-0.76,1.29-2.26,2.18-4.48
		l2.46-6.15c0.68-1.76,1.03-3.08,1.03-3.96c0-1.17-0.72-1.95-2.15-2.33c-2.87-0.79-4.31-2.2-4.31-4.22c0-1.76,1.11-3.02,3.33-3.78
		c2.22-0.76,5.88-1.14,10.97-1.14c3.32,0,5.9,0.32,7.74,0.97c2.56,0.88,3.85,2.29,3.85,4.22c0,0.85-0.23,1.58-0.69,2.2
		c-0.46,0.62-1.39,1.44-2.79,2.46c-0.92,0.67-1.63,1.39-2.13,2.15c-0.5,0.76-1.26,2.33-2.28,4.7l-8.97,20.43
		c-4.48,9.52-7.18,15.19-8.1,17.01c-0.92,1.82-1.88,3.44-2.87,4.88c-0.75,1.05-1.59,1.79-2.51,2.22c-0.92,0.42-2.15,0.64-3.69,0.64
		c-2.05,0-3.7-0.38-4.95-1.14c-1.25-0.76-2.3-2.02-3.15-3.78l-10.15-20.65c-0.55-1.14-0.96-1.86-1.23-2.15
		c-0.27-0.29-0.65-0.44-1.13-0.44c-0.72,0-1.33,0.37-1.85,1.1c-0.51,0.73-1.49,2.62-2.92,5.67l-6.97,14.85
		c-1.3,2.7-2.54,4.48-3.72,5.34s-2.97,1.3-5.36,1.3c-2.15,0-3.85-0.44-5.1-1.32s-2.38-2.43-3.41-4.66l-18.87-41.35
		c-0.79-1.7-1.33-2.7-1.62-3.01c-0.29-0.31-1.21-0.81-2.74-1.52c-1.74-0.76-2.62-2.05-2.62-3.87c0-4.13,5.98-6.2,17.95-6.2
		c6.12,0,10.54,0.37,13.28,1.1c2.63,0.73,3.95,2.18,3.95,4.35c0,0.67-0.07,1.16-0.21,1.47s-0.63,0.99-1.49,2.04
		c-0.41,0.56-0.62,1.25-0.62,2.07c0,1.47,1.15,4.51,3.44,9.14l2.1,4.22c0.89,1.76,1.48,2.82,1.77,3.19
		c0.29,0.37,0.71,0.55,1.26,0.55c1.33,0,2.7-1.63,4.1-4.88l2.1-5.01c0.17-0.35,0.26-0.63,0.26-0.83
		C869.03,53.3,868.95,52.99,868.78,52.61z"/>
	<path class="st1" d="M946.41,37.63c3.04,0,5.62,0.94,7.74,2.81c2.84,2.46,4.26,5.95,4.26,10.46c0,2.99-0.61,6.2-1.82,9.65
		c-1.21,3.44-2.83,6.51-4.85,9.21c-2.29,3.05-4.14,4.57-5.54,4.57c-1.37,0-3.3-1.95-5.79-5.84c-1.85-2.87-3.31-5.95-4.38-9.23
		c-1.08-3.28-1.62-6.28-1.62-9.01c0-3.34,0.87-6.14,2.61-8.39C939.18,39.03,942.31,37.63,946.41,37.63z M946.67,79.15
		c2.97,0,5.52,0.95,7.64,2.86c2.12,1.88,3.18,4.07,3.18,6.59c0,2.61-1.09,4.86-3.28,6.75s-4.8,2.83-7.84,2.83
		c-2.97,0-5.52-0.86-7.64-2.59c-2.29-1.87-3.44-4.19-3.44-6.94c0-2.55,1.01-4.7,3.03-6.46C940.56,80.17,943.35,79.15,946.67,79.15z"
		/>
</g>
<g>
	<circle class="st2" cx="148.04" cy="287.54" r="114.04"/>
	<circle class="st3" cx="148.04" cy="287.54" r="106.69"/>
</g>
<g>
	<circle class="st2" cx="403.04" cy="287.54" r="114.04"/>
	<circle class="st3" cx="403.04" cy="287.54" r="106.69"/>
</g>
<g>
	<circle class="st2" cx="898.04" cy="287.54" r="114.04"/>
	<circle class="st3" cx="898.04" cy="287.54" r="106.69"/>
</g>
<g>
	<circle class="st2" cx="652.04" cy="287.54" r="114.04"/>
	<circle class="st3" cx="652.04" cy="287.54" r="106.69"/>
</g>
</svg>
